<?xml version="1.0" encoding="UTF-8"?>
<svg xmlns="http://www.w3.org/2000/svg" width="299" height="113" viewBox="0 0 299 113" fill="none">
  <path d="M149.467 100.742C158.627 100.742 164.614 95.5224 164.614 87.4371V80.6823H152.5L149.416 87.0789H157.706V87.4371C157.706 91.7356 155.147 94.0896 149.467 94.0896C144.094 94.0896 141.228 91.1215 141.228 85.4414V79.3006C141.228 73.6205 144.094 70.6525 149.467 70.6525C154.431 70.6525 157.45 72.9041 157.655 77.049H164.563C164.307 68.7591 158.115 64 149.467 64C140.461 64 134.32 69.5267 134.32 79.3006V85.4414C134.32 95.2154 140.461 100.742 149.467 100.742Z" fill="#0A0AF4"></path>
  <path d="M169.623 100.281H176.019V85.3902C176.019 81.5011 178.015 79.5053 181.699 79.5053H185.64V73.3646H181.699C178.22 73.3646 176.736 74.3369 176.019 75.2068V73.3646H169.623V100.281Z" fill="#0A0AF4"></path>
  <path d="M187.611 84.3156V89.3305C187.611 96.29 192.574 100.742 199.432 100.742C206.289 100.742 211.201 96.29 211.201 89.3305V84.3156C211.201 77.3561 206.289 72.9041 199.432 72.9041C192.574 72.9041 187.611 77.3561 187.611 84.3156ZM194.007 89.3305V84.3156C194.007 81.0917 195.901 79.0448 199.432 79.0448C202.962 79.0448 204.805 81.0917 204.805 84.3156V89.3305C204.805 93.0661 202.962 94.6013 199.432 94.6013C195.901 94.6013 194.007 93.0661 194.007 89.3305Z" fill="#0A0AF4"></path>
  <path d="M232.029 90.1493C232.029 93.5267 230.034 94.8571 227.066 94.8571C224.098 94.8571 222.102 93.5267 222.102 90.1493V73.3646H215.705V90.8657C215.705 96.8529 219.953 100.742 227.066 100.742C234.179 100.742 238.426 96.8529 238.426 90.8657V73.3646H232.029V90.1493Z" fill="#0A0AF4"></path>
  <path d="M256.255 100.742C263.112 100.742 267.053 96.29 267.053 89.3305V84.3156C267.053 77.3561 263.112 72.9041 256.255 72.9041C253.594 72.9041 251.496 73.5693 249.859 74.7974V73.3646H243.462V112.5H249.859V98.8486C251.496 100.077 253.594 100.742 256.255 100.742ZM249.859 89.3305V84.3156C249.859 81.0917 251.701 79.0448 255.232 79.0448C258.763 79.0448 260.656 81.0917 260.656 84.3156V89.3305C260.656 93.0661 258.763 94.6013 255.232 94.6013C251.701 94.6013 249.859 93.0661 249.859 89.3305Z" fill="#0A0AF4"></path>
  <path d="M41.4302 13.3745V48.0916H48.4557V13.3745H41.4302Z" fill="#030352"></path>
  <path d="M251.97 13.3745V48.0916H258.996V13.3745H251.97Z" fill="#030352"></path>
  <path d="M81.6771 16.6878C80.7316 15.6926 79.6456 14.8906 78.422 14.2789C76.4227 13.2779 74.0603 12.7832 71.3467 12.7832C71.136 12.7832 70.9252 12.7861 70.7174 12.7949C70.7027 12.792 70.6881 12.792 70.6735 12.7949C70.4656 12.7861 70.2549 12.7832 70.0441 12.7832C67.3305 12.7832 64.9682 13.2779 62.9689 14.2789C61.7452 14.8906 60.6592 15.6926 59.7137 16.6878C57.2197 19.2724 55.9434 22.8052 55.9434 27.3157V34.0595C55.9434 38.611 57.1816 42.1878 59.7137 44.7958C60.6651 45.7822 61.7511 46.5812 62.9689 47.19C64.9653 48.194 67.3217 48.6945 70.0441 48.7004C70.2637 48.7004 70.4832 48.6974 70.6969 48.6887C73.7647 48.5833 76.3261 47.7227 78.422 46.1188V50.7932C78.422 52.9504 77.8512 54.6275 76.7359 55.8305C75.6821 56.9516 73.8993 57.5399 71.4316 57.6189C71.2677 57.6248 71.0979 57.6277 70.9281 57.6277C70.8491 57.6277 70.773 57.6277 70.6969 57.6218C70.6208 57.6218 70.5447 57.6218 70.4715 57.6189H66.1391L63.7241 62.4807L62.9689 63.9998H70.9281C73.9315 63.9998 76.4812 63.4905 78.583 62.4807C79.7627 61.9158 80.8019 61.1899 81.7035 60.3088C82.5348 59.4893 83.2257 58.5936 83.776 57.6189C84.8884 55.6637 85.4387 53.4011 85.4475 50.84V27.3157C85.4475 22.8052 84.1712 19.2724 81.6771 16.6878ZM78.422 34.0595C78.422 34.2293 78.422 34.3961 78.4132 34.5571C78.4074 34.8849 78.3839 35.2011 78.3488 35.5055C78.34 35.6255 78.3254 35.7396 78.3049 35.8538C78.302 35.9123 78.2932 35.9679 78.2815 36.0235C78.021 37.7534 77.3887 39.0969 76.3934 40.0745C75.2722 41.1546 73.7852 41.7751 71.941 41.9653C71.8093 41.9829 71.6775 41.9946 71.5429 42.0005C71.256 42.0239 70.9603 42.0356 70.6588 42.0356C70.3807 42.0327 70.1114 42.0239 69.848 42.0005C69.7133 41.9946 69.5787 41.9829 69.4469 41.9653C67.6027 41.7751 66.1157 41.1516 64.9975 40.0745C64.0022 39.0969 63.3699 37.7534 63.1094 36.0235C63.0772 35.8216 63.0508 35.6108 63.0303 35.3972C63.0011 35.125 62.9835 34.8469 62.9776 34.5571C62.9718 34.3932 62.9689 34.2293 62.9689 34.0595V27.424C62.9689 26.5781 63.0362 25.7996 63.1767 25.0883C63.1825 25.0561 63.1884 25.0239 63.1972 24.9917C63.4928 23.4814 64.0871 22.2901 64.9975 21.4091C66.2855 20.1651 68.0389 19.5182 70.2783 19.4568C70.4042 19.4509 70.53 19.448 70.6588 19.448C70.8111 19.448 70.9633 19.4509 71.1126 19.4568C73.3519 19.5182 75.1054 20.1651 76.3934 21.4091C77.2657 22.252 77.8483 23.3789 78.1585 24.8014C78.179 24.8951 78.1995 24.9917 78.2171 25.0883C78.22 25.1117 78.2229 25.1351 78.2288 25.1585C78.2464 25.2551 78.2639 25.3546 78.2786 25.4542C78.3752 26.063 78.422 26.7216 78.422 27.424V34.0595Z" fill="#030352"></path>
  <path d="M92.373 48.0926V13.3755H99.3985V16.0508C101.322 13.8497 104.334 12.7755 108.388 12.7755C112.205 12.7638 115.343 13.9199 117.753 16.2059C120.15 18.4802 121.365 21.5623 121.365 25.4201V48.0926H114.339V26.9568C114.322 24.6386 113.728 22.818 112.51 21.4687C111.272 20.1076 109.427 19.4432 106.919 19.4432C104.694 19.4432 102.888 20.0959 101.492 21.4043C100.089 22.7038 99.3985 24.5625 99.3985 26.9568V48.0926H92.373Z" fill="#030352"></path>
  <path d="M150.181 13.4151V15.4347C147.916 13.6873 145.114 12.8033 141.818 12.8151C137.439 12.8151 133.973 14.1 131.476 16.7197C128.959 19.3247 127.682 22.8927 127.7 27.4559V34.0914C127.7 38.6429 128.941 42.2197 131.476 44.8276C133.991 47.4297 137.424 48.7234 141.818 48.7322C145.17 48.7322 147.942 47.8658 150.181 46.1418V48.1322H157.207V13.4151H150.181ZM150.181 34.0914C150.181 36.9247 149.514 38.9531 148.188 40.203C146.859 41.4469 144.95 42.047 142.503 42.0674C139.977 42.0674 138.036 41.4381 136.719 40.2205C135.39 38.9883 134.711 36.9335 134.728 34.0914V27.4559C134.728 24.8626 135.399 22.8693 136.786 21.5229C138.156 20.1618 140.05 19.4769 142.503 19.4798C144.877 19.4798 146.733 20.1443 148.124 21.5229C149.494 22.8868 150.164 24.8509 150.181 27.4559V34.0914Z" fill="#030352"></path>
  <path d="M162.774 19.7553V13.3832H167.932L168.029 6.34961H174.893V13.3832H183.245V19.7553H174.893V41.4355H183.324V48.1003H177.704C174.551 48.1003 172.142 47.2456 170.432 45.5362C168.708 43.824 167.868 41.5585 167.868 38.7281V19.7553H162.777H162.774Z" fill="#030352"></path>
  <path d="M190.332 35.789V13.377H197.358V34.6445C197.343 39.635 199.79 42.1581 204.655 42.1581C209.515 42.1522 211.953 39.6526 211.953 34.6445V13.377H218.978V35.789C218.967 39.7375 217.72 42.8957 215.202 45.2168C212.673 47.5233 209.169 48.697 204.655 48.697C200.133 48.6882 196.623 47.5379 194.105 45.2168C191.57 42.884 190.332 39.755 190.332 35.789Z" fill="#030352"></path>
  <path d="M226.528 48.094V13.377H233.553V16.6113C235.125 14.4424 237.836 13.377 241.638 13.377H245.909V20.3373H241.638C239.051 20.3227 237.057 21.0662 235.655 22.5209C234.244 23.958 233.553 26.1796 233.553 29.133V48.094H226.528Z" fill="#030352"></path>
  <path d="M265.198 19.7553V13.3832L270.356 13.3744V6.34961H277.317V13.3832H298.718L295.791 19.7553H277.317V41.4355H288.675L285.747 48.1003H280.127C276.974 48.1003 274.565 47.2456 272.856 45.5362C271.131 43.8239 270.291 41.5585 270.291 38.728V19.7553H265.201H265.198Z" fill="#030352"></path>
  <path d="M35.268 34.6305C35.2592 37.3702 34.5127 39.7966 33.0052 41.8719C31.483 43.9471 29.4163 45.5394 26.7642 46.6429C24.0945 47.7347 21.0882 48.2966 17.7013 48.2966C12.1512 48.2879 7.85684 46.8917 4.79197 44.0788C1.71539 41.2514 0.131728 37.4931 0 32.7572H7.44995C7.57582 35.3857 8.52426 37.4931 10.2748 39.0298C12.0165 40.5606 14.5018 41.3392 17.7013 41.3392C20.9447 41.3216 23.43 40.7421 25.1308 39.5479C26.8286 38.3449 27.6863 36.7174 27.6863 34.6334C27.6687 32.8216 27.1477 31.4225 26.0734 30.4039C24.9844 29.3707 23.351 28.6126 21.135 28.0916L13.9134 26.3617C10.0611 25.4046 7.11624 23.9148 5.07006 21.8834C3.01511 19.8404 2.00226 17.1036 2.00226 13.6293C1.9847 9.66615 3.44542 6.45524 6.33465 3.97607C9.19461 1.49398 13.1055 0.267567 18.0292 0.255859H18.1697C23.0846 0.255859 27.0833 1.64326 30.1511 4.37414C31.1259 5.24639 31.9543 6.19181 32.6275 7.21626H18.2107C18.1492 7.21333 18.0906 7.21333 18.0292 7.21333C15.2775 7.20747 13.1611 7.78117 11.677 8.91099C10.1928 10.0437 9.45221 11.5453 9.45221 13.4156C9.44929 15.0343 9.97327 16.3134 11.0125 17.2032C12.0458 18.0783 13.7026 18.8247 15.9566 19.3926L23.2105 21.1985C27.2589 22.22 30.2974 23.8533 32.2851 26.0485C34.2698 28.2321 35.268 31.1035 35.268 34.6305Z" fill="#030352"></path>
  <path d="M44.8929 8.27993C47.2508 8.27993 49.1622 6.42641 49.1622 4.13997C49.1622 1.85353 47.2508 0 44.8929 0C42.535 0 40.6235 1.85353 40.6235 4.13997C40.6235 6.42641 42.535 8.27993 44.8929 8.27993Z" fill="#030352"></path>
  <path d="M36.6644 0.255859L33.4678 7.21625H18.0293V0.255859H36.6644Z" fill="#030352"></path>
  <path d="M255.514 8.27993C257.872 8.27993 259.783 6.42641 259.783 4.13997C259.783 1.85353 257.872 0 255.514 0C253.156 0 251.245 1.85353 251.245 4.13997C251.245 6.42641 253.156 8.27993 255.514 8.27993Z" fill="#030352"></path>
</svg>
